<?xml version="1.0" standalone="no"?>
<!DOCTYPE svg PUBLIC "-//W3C//DTD SVG 20010904//EN"
 "http://www.w3.org/TR/2001/REC-SVG-20010904/DTD/svg10.dtd">
<svg version="1.0" xmlns="http://www.w3.org/2000/svg"
 width="209.000000pt" height="272.000000pt" viewBox="0 0 209.000000 272.000000"
 preserveAspectRatio="xMidYMid meet">
<metadata>
Created by potrace 1.16, written by Peter Selinger 2001-2019
</metadata>
<g transform="translate(0.000000,272.000000) scale(0.100000,-0.100000)"
fill="#000000" stroke="none">
<path d="M473 2620 c-62 -38 -63 -42 -63 -430 l0 -350 -93 0 c-119 0 -171 -23
-204 -90 -23 -44 -23 -48 -23 -485 0 -437 0 -441 23 -485 12 -25 36 -53 53
-62 17 -10 165 -45 328 -78 166 -33 310 -67 327 -77 17 -10 40 -34 52 -53 20
-32 22 -50 25 -232 l4 -198 153 0 153 0 4 198 c3 195 3 199 29 238 16 24 42
47 65 57 22 9 164 41 318 71 153 31 293 64 310 74 17 9 41 37 54 62 22 44 22
48 22 485 0 437 0 441 -22 485 -34 67 -86 90 -205 90 l-93 0 0 350 c0 388 -1
392 -63 430 -18 11 -43 20 -57 20 -14 0 -39 -9 -57 -20 -62 -38 -63 -42 -63
-430 l0 -350 -400 0 -400 0 0 354 c0 351 0 353 -23 387 -40 60 -97 74 -154 39z"/>
</g>
</svg>
