<?xml version="1.0" standalone="no"?>
<!DOCTYPE svg PUBLIC "-//W3C//DTD SVG 20010904//EN"
 "http://www.w3.org/TR/2001/REC-SVG-20010904/DTD/svg10.dtd">
<svg version="1.0" xmlns="http://www.w3.org/2000/svg"
 width="70.000000pt" height="45.000000pt" viewBox="10 0 45.000000 73.000000"
 preserveAspectRatio="xMidYMid meet">

<g transform="translate(0.200000,60.000000) scale(0.060000,-0.090000)"
fill="#F5F51D" stroke="none">
<path d="M131 505 c-41 -8 -86 -22 -100 -33 l-26 -19 -3 -191 c-3 -221 -9
-207 108 -239 60 -17 123 -18 765 -18 758 0 796 2 875 53 l40 26 0 174 c0 184
0 182 -52 216 -62 41 -148 45 -858 45 -520 -1 -692 -4 -749 -14z m1494 -50
c43 -8 84 -20 91 -26 12 -10 14 -44 12 -173 l-3 -161 -37 -12 c-84 -27 -219
-33 -793 -33 -577 0 -732 6 -811 32 l-39 13 -3 162 c-3 187 -8 177 103 199 96
19 1379 19 1480 -1z"/>
<path d="M484 426 c-64 -28 -100 -105 -91 -194 9 -88 61 -141 145 -150 62 -5
114 17 142 63 11 18 20 35 20 38 0 3 -15 10 -32 16 -25 9 -34 9 -37 -1 -2 -6
-14 -22 -27 -35 -30 -30 -75 -30 -111 1 -26 22 -28 30 -28 96 0 66 2 74 28 96
39 34 81 31 119 -7 25 -24 36 -29 59 -24 34 8 35 11 10 51 -35 57 -127 80
-197 50z"/>
<path d="M760 300 c0 -155 11 -193 64 -215 46 -19 109 -19 147 1 48 24 59 65
59 214 l0 130 -35 0 -35 0 0 -133 c0 -117 -2 -136 -18 -150 -25 -23 -68 -21
-92 3 -18 18 -20 33 -20 150 l0 130 -35 0 -35 0 0 -130z"/>
<path d="M1110 255 l0 -175 130 0 130 0 0 30 0 30 -95 0 -95 0 0 45 0 45 85 0
85 0 0 30 0 30 -85 0 -85 0 0 40 0 40 90 0 90 0 0 30 0 30 -125 0 -125 0 0
-175z"/>
</g>
</svg>
