<?xml version="1.0" standalone="no"?>
<!DOCTYPE svg PUBLIC "-//W3C//DTD SVG 20010904//EN"
 "http://www.w3.org/TR/2001/REC-SVG-20010904/DTD/svg10.dtd">
<svg version="1.0" xmlns="http://www.w3.org/2000/svg"
 width="512.000000pt" height="512.000000pt" viewBox="0 0 512.000000 512.000000"
 preserveAspectRatio="xMidYMid meet">
<metadata>
Created by potrace 1.16, written by Peter Selinger 2001-2019
</metadata>
<g transform="translate(0.000000,512.000000) scale(0.100000,-0.100000)"
fill="#000000" stroke="none">
<path d="M303 5052 c-86 -74 -272 -269 -286 -299 -33 -73 41 -14 241 191 78
80 142 151 142 156 0 23 -34 6 -97 -48z"/>
<path d="M503 5051 c-104 -90 -480 -475 -488 -500 -12 -37 2 -35 52 7 72 60
533 529 533 541 0 24 -33 8 -97 -48z"/>
<path d="M703 5051 c-112 -97 -680 -674 -687 -699 -23 -71 24 -29 442 391 188
189 342 349 342 356 0 24 -32 8 -97 -48z"/>
<path d="M903 5051 c-116 -100 -880 -875 -888 -899 -22 -72 19 -35 543 491
243 244 442 449 442 455 0 25 -32 10 -97 -47z"/>
<path d="M1103 5051 c-118 -102 -1080 -1075 -1088 -1099 -11 -38 2 -37 52 6
79 66 1133 1127 1133 1140 0 25 -32 10 -97 -47z"/>
<path d="M1303 5051 c-119 -104 -1280 -1275 -1288 -1299 -11 -38 2 -37 52 6
80 67 1333 1327 1333 1340 0 25 -32 10 -97 -47z"/>
<path d="M1503 5051 c-121 -105 -1480 -1475 -1488 -1499 -11 -38 2 -37 52 6
81 68 1533 1527 1533 1540 0 25 -32 10 -97 -47z"/>
<path d="M1703 5051 c-121 -105 -1680 -1675 -1688 -1699 -11 -38 2 -37 52 6
81 68 1733 1727 1733 1740 0 25 -32 10 -97 -47z"/>
<path d="M1903 5051 c-122 -106 -1881 -1875 -1888 -1899 -11 -38 2 -37 52 6
82 69 1933 1927 1933 1940 0 25 -32 10 -97 -47z"/>
<path d="M2103 5051 c-123 -107 -2081 -2075 -2088 -2099 -11 -38 2 -37 52 6
82 69 2133 2127 2133 2140 0 25 -32 10 -97 -47z"/>
<path d="M2303 5051 c-123 -107 -2281 -2276 -2288 -2299 -11 -38 2 -37 52 6
82 69 2333 2327 2333 2340 0 25 -32 10 -97 -47z"/>
<path d="M2503 5051 c-124 -107 -2481 -2476 -2488 -2499 -11 -38 2 -37 52 6
82 70 2533 2527 2533 2540 0 25 -32 10 -97 -47z"/>
<path d="M2703 5051 c-124 -108 -2681 -2676 -2688 -2699 -11 -38 2 -37 52 6
83 70 2733 2727 2733 2740 0 25 -32 10 -97 -47z"/>
<path d="M2933 5078 c-21 -17 -263 -255 -538 -528 -483 -480 -502 -497 -556
-513 -144 -44 -270 -170 -325 -326 -22 -64 -27 -69 -732 -775 -390 -391 -723
-728 -740 -749 -33 -39 -41 -67 -20 -67 7 0 340 327 740 727 l728 727 0 -64 0
-65 -681 -680 c-374 -374 -707 -710 -740 -748 -57 -65 -72 -97 -47 -97 7 0
340 327 740 727 l728 727 0 -64 0 -65 -147 -146 c-92 -91 -170 -159 -207 -180
-79 -45 -172 -139 -218 -219 -30 -51 -120 -147 -414 -440 -207 -206 -402 -405
-435 -443 -56 -65 -72 -97 -47 -97 6 0 196 184 422 410 l411 409 -3 -67 -3
-67 -388 -390 c-213 -214 -402 -407 -419 -428 -33 -38 -41 -67 -20 -67 6 0
197 185 423 411 l413 411 12 -52 13 -52 -405 -407 c-222 -223 -419 -423 -436
-444 -33 -38 -41 -67 -20 -67 6 0 208 196 448 436 l437 435 22 -36 c11 -20 21
-39 21 -43 0 -4 -185 -192 -411 -417 -226 -226 -437 -440 -470 -478 -57 -65
-72 -97 -47 -97 6 0 226 214 488 475 l476 475 32 -33 32 -33 -461 -459 c-254
-253 -487 -490 -520 -528 -57 -65 -72 -97 -47 -97 6 0 249 237 539 526 l527
526 37 -28 36 -27 -544 -546 c-299 -300 -558 -563 -575 -584 -33 -39 -41 -67
-20 -67 6 0 274 261 594 581 l582 581 33 -31 34 -30 -596 -598 c-327 -329
-610 -615 -627 -636 -33 -39 -41 -67 -20 -67 6 0 298 286 648 635 l636 635 32
-33 32 -32 -621 -620 c-342 -341 -647 -650 -680 -688 -57 -65 -72 -97 -47 -97
6 0 321 309 699 686 l687 686 37 -28 36 -27 -704 -706 c-387 -388 -718 -723
-735 -744 -33 -39 -41 -67 -20 -67 7 0 346 333 754 741 l742 741 33 -30 34
-31 -757 -758 c-417 -418 -758 -764 -758 -771 0 -25 32 -10 97 47 38 33 381
372 763 755 l695 696 32 -32 33 -32 -710 -711 c-390 -391 -710 -717 -710 -723
0 -21 28 -13 67 20 21 17 336 329 701 692 l662 661 0 -65 0 -64 -615 -616
c-338 -339 -615 -622 -615 -628 0 -21 28 -13 67 20 21 17 291 284 601 592 339
339 562 554 562 543 0 -10 7 -32 16 -49 l16 -30 -531 -532 c-292 -293 -531
-538 -531 -544 0 -25 32 -10 97 47 38 33 279 271 538 530 l470 471 65 0 64 0
-517 -518 c-284 -285 -517 -524 -517 -530 0 -25 32 -10 97 47 38 33 279 271
538 530 l470 471 65 0 64 0 -517 -518 c-284 -285 -517 -524 -517 -530 0 -25
32 -10 97 47 38 33 279 271 538 530 l470 471 65 0 64 0 -517 -518 c-284 -285
-517 -524 -517 -530 0 -25 32 -10 97 47 38 33 279 271 538 530 l470 471 65 0
64 0 -517 -518 c-284 -285 -517 -524 -517 -530 0 -25 32 -10 97 47 38 33 279
271 538 530 l470 471 65 0 64 0 -517 -518 c-284 -285 -517 -524 -517 -530 0
-25 32 -10 97 47 38 33 279 271 538 530 l470 471 65 0 64 0 -517 -518 c-284
-285 -517 -524 -517 -530 0 -25 32 -10 97 47 38 33 279 271 538 530 l470 471
65 0 64 0 -517 -518 c-284 -285 -517 -524 -517 -530 0 -25 32 -10 97 47 38 33
279 271 538 530 l470 471 65 0 64 0 -517 -518 c-284 -285 -517 -524 -517 -530
0 -25 32 -10 97 47 38 33 279 271 538 530 l470 471 65 0 64 0 -517 -518 c-284
-285 -517 -524 -517 -530 0 -25 32 -10 97 47 75 66 2471 2464 2521 2524 33 39
41 67 20 67 -7 0 -342 -329 -745 -732 l-733 -732 0 64 0 65 686 685 c377 377
712 715 745 753 57 65 72 97 47 97 -7 0 -342 -329 -745 -732 -516 -515 -733
-726 -733 -712 0 12 5 46 10 75 l10 54 703 705 c387 388 718 722 735 743 33
39 41 67 20 67 -6 0 -328 -316 -714 -702 l-703 -701 36 99 36 99 647 650 c355
358 661 667 678 688 33 39 41 67 20 67 -6 0 -301 -289 -655 -642 l-644 -643
36 100 36 100 588 590 c323 325 602 607 619 628 33 39 41 67 20 67 -6 0 -277
-264 -601 -587 -324 -324 -586 -577 -582 -564 4 12 16 53 26 89 l19 67 543
545 c299 300 558 562 575 583 33 39 41 67 20 67 -6 0 -261 -249 -565 -552
-376 -375 -553 -545 -549 -528 3 14 10 50 16 80 l10 56 491 489 c270 270 517
520 550 558 57 65 72 97 47 97 -6 0 -252 -240 -545 -532 l-534 -533 6 45 c3
25 8 59 11 75 3 24 102 128 480 505 262 261 502 505 535 543 57 65 72 97 47
97 -6 0 -247 -235 -535 -522 l-524 -523 7 70 6 70 497 500 c274 275 512 517
529 538 33 39 41 67 20 67 -6 0 -244 -232 -529 -516 l-517 -516 -11 53 -12 53
509 511 c280 280 523 527 540 548 33 39 41 67 20 67 -6 0 -254 -242 -550 -537
-295 -295 -539 -535 -541 -532 -2 2 -13 20 -25 39 l-21 36 515 514 c284 283
542 545 575 583 57 65 72 97 47 97 -6 0 -273 -261 -593 -580 l-581 -580 -32
33 -32 33 566 564 c311 311 592 595 625 633 57 65 72 97 47 97 -6 0 -298 -286
-648 -636 l-637 -635 -39 18 c-21 9 -41 19 -44 21 -2 1 293 301 656 665 363
364 675 679 692 700 33 39 41 67 20 67 -6 0 -332 -319 -723 -710 -681 -681
-712 -710 -747 -710 -29 0 -38 5 -43 21 -6 18 99 127 699 728 388 389 706 713
706 719 0 21 -28 13 -67 -20 -21 -17 -338 -331 -705 -697 -367 -366 -669 -663
-671 -661 -2 3 -14 20 -27 38 l-23 34 647 647 c355 356 646 653 646 659 0 21
-28 13 -67 -20 -21 -17 -313 -306 -649 -641 l-612 -610 -36 28 -37 28 600 602
c331 331 601 607 601 613 0 21 -28 13 -67 -20 -21 -17 -295 -287 -608 -600
l-570 -568 -49 16 -48 16 571 572 c314 315 571 578 571 584 0 21 -28 13 -67
-20 -21 -17 -285 -278 -588 -579 l-550 -547 -69 -5 -68 -5 571 572 c314 315
571 578 571 584 0 21 -28 13 -67 -20 -21 -17 -297 -289 -613 -605 -317 -315
-582 -573 -591 -573 -9 0 -26 11 -39 25 l-24 25 567 568 c312 313 567 574 567
580 0 21 -28 13 -67 -20 -21 -17 -279 -272 -573 -565 l-536 -534 -41 23 -42
23 529 531 c292 292 530 536 530 542 0 21 -28 13 -67 -20 -21 -17 -265 -258
-543 -534 l-505 -503 -53 11 -53 11 510 512 c281 281 511 517 511 523 0 21
-28 13 -67 -20 -21 -17 -263 -255 -538 -528 -474 -471 -503 -497 -549 -509
-27 -6 -72 -22 -99 -36 -42 -20 31 58 502 529 303 304 551 558 551 564 0 21
-28 13 -67 -20 -21 -17 -277 -270 -569 -561 l-532 -530 -46 19 -45 19 529 531
c292 292 530 536 530 542 0 25 -32 10 -97 -47 -38 -33 -281 -273 -542 -534
-303 -304 -479 -473 -490 -471 -9 1 -34 6 -55 9 l-39 6 512 513 c281 282 511
518 511 524 0 21 -28 13 -67 -20z m-881 -1257 c4 -4 -71 -85 -167 -181 l-175
-175 0 66 0 65 124 123 125 123 43 -7 c24 -4 46 -10 50 -14z m590 0 c14 -5
-90 -114 -457 -481 l-475 -475 0 65 0 65 422 422 421 421 36 -5 c20 -3 44 -9
53 -12z m-557 -381 l-370 -370 -3 62 -3 62 250 250 251 251 54 0 c52 0 56 2
114 58 33 31 64 57 69 57 4 0 -159 -167 -362 -370z m62 328 c13 -12 23 -26 23
-32 0 -6 -103 -115 -230 -241 l-230 -230 0 65 0 65 197 197 c109 109 202 198
207 198 5 0 20 -10 33 -22z m598 -10 l27 -31 -778 -778 -778 -778 -28 20 c-15
11 -30 25 -34 31 -6 9 1542 1568 1558 1568 3 0 18 -14 33 -32z m-445 -903
l-875 -875 -33 32 -33 32 818 818 c864 864 868 868 957 868 l41 0 -875 -875z
m975 838 c19 -9 35 -19 35 -22 0 -3 -399 -405 -888 -894 l-887 -887 -35 29
-35 30 880 880 c484 485 883 881 887 881 4 0 23 -8 43 -17z m-423 -59 c15 -8
-113 -140 -756 -783 l-774 -774 -36 29 -36 29 772 772 c763 763 773 772 793
754 11 -10 28 -22 37 -27z m521 -33 c9 -16 17 -35 17 -43 0 -7 -393 -406 -874
-887 l-874 -874 -36 29 -36 29 887 887 c489 489 890 888 893 888 3 0 13 -13
23 -29z m63 -182 c13 -11 -95 -123 -838 -866 l-853 -853 -33 32 -33 32 863
863 c837 837 863 862 870 834 5 -16 15 -34 24 -42z m-683 -911 l-903 -903 -32
33 -33 32 860 860 c668 668 866 860 885 861 14 0 34 4 45 9 11 5 33 9 50 9 27
1 -73 -102 -872 -901z m1004 857 l28 -24 -935 -936 c-824 -824 -936 -932 -941
-912 -3 13 -12 34 -19 46 -12 23 26 62 901 937 503 503 919 914 926 914 7 0
25 -11 40 -25z m72 -123 l8 -50 -959 -959 -958 -958 0 65 0 65 947 947 c521
521 949 946 950 944 2 -2 7 -26 12 -54z m-2365 -223 c-23 -24 -35 -28 -95 -31
l-69 -3 93 93 92 93 3 -62 c3 -55 0 -65 -24 -90z m1514 -886 l-853 -853 -65 0
-65 0 915 915 915 915 3 -62 3 -62 -853 -853z m832 691 l-11 -69 -737 -737
-737 -738 -65 0 -65 0 810 810 c445 445 811 808 812 806 2 -2 -1 -34 -7 -72z
m-2565 -224 c-108 -108 -171 -165 -173 -155 -2 8 2 41 8 72 11 53 20 65 94
142 85 86 128 108 211 110 27 1 16 -13 -140 -169z m125 -75 c-135 -135 -249
-244 -254 -242 -5 2 -15 20 -24 41 l-15 38 204 204 204 204 65 0 65 0 -245
-245z m2395 49 l-16 -69 -612 -612 -612 -613 -65 0 -65 0 690 690 c380 380
691 686 693 681 2 -5 -4 -40 -13 -77z m-75 -270 l-30 -89 -468 -467 -467 -468
-65 0 -65 0 560 560 c307 307 560 558 562 556 2 -1 -11 -43 -27 -92z m-107
-301 l-36 -98 -311 -312 -311 -313 -65 0 -65 0 410 410 c225 226 411 410 411
410 1 0 -14 -44 -33 -97z m-119 -320 l-35 -98 -152 -152 -152 -153 -65 0 -65
0 250 250 c137 138 251 250 252 250 1 0 -14 -44 -33 -97z m-96 -360 c-41 -42
-44 -43 -107 -43 l-66 0 105 105 105 106 3 -62 c3 -61 2 -63 -40 -106z"/>
<path d="M3922 1278 c-645 -645 -1192 -1195 -1214 -1221 -43 -50 -44 -63 -6
-52 23 7 2252 2225 2359 2348 57 65 72 97 47 97 -7 0 -540 -528 -1186 -1172z"/>
<path d="M4022 1178 c-590 -590 -1092 -1095 -1114 -1121 -43 -50 -44 -63 -6
-52 24 7 2052 2025 2159 2148 57 65 72 97 47 97 -7 0 -495 -483 -1086 -1072z"/>
<path d="M4122 1078 c-535 -535 -992 -995 -1014 -1021 -43 -50 -44 -63 -6 -52
24 7 1853 1826 1959 1948 57 65 72 97 47 97 -7 0 -450 -438 -986 -972z"/>
<path d="M4222 978 c-480 -480 -892 -895 -914 -921 -43 -50 -44 -63 -6 -52 24
8 1653 1626 1759 1748 57 65 72 97 47 97 -7 0 -405 -393 -886 -872z"/>
<path d="M4322 878 c-754 -754 -860 -863 -849 -874 3 -3 16 -3 29 1 24 8 1454
1427 1559 1548 57 65 72 97 47 97 -7 0 -360 -348 -786 -772z"/>
<path d="M4422 778 c-658 -658 -760 -763 -749 -774 3 -3 16 -3 29 1 24 8 1255
1228 1359 1348 57 65 72 97 47 97 -6 0 -315 -303 -686 -672z"/>
<path d="M4522 678 c-664 -663 -694 -695 -620 -673 24 8 1056 1030 1159 1148
57 65 72 97 47 97 -6 0 -270 -258 -586 -572z"/>
<path d="M4623 578 c-558 -557 -594 -595 -521 -573 24 8 858 832 959 948 57
65 72 97 47 97 -6 0 -225 -213 -485 -472z"/>
<path d="M4723 478 c-452 -450 -492 -495 -421 -472 25 7 661 634 759 747 56
65 72 97 48 97 -7 0 -180 -168 -386 -372z"/>
<path d="M4823 378 c-345 -342 -390 -394 -322 -373 25 8 468 441 560 548 56
64 72 97 48 97 -6 0 -135 -123 -286 -272z"/>
<path d="M4924 278 c-185 -182 -261 -265 -250 -275 14 -14 62 23 192 149 203
197 286 298 244 298 -6 0 -90 -78 -186 -172z"/>
</g>
</svg>
