<?xml version="1.0" standalone="no"?>
<!DOCTYPE svg PUBLIC "-//W3C//DTD SVG 20010904//EN"
 "http://www.w3.org/TR/2001/REC-SVG-20010904/DTD/svg10.dtd">
<svg version="1.0" xmlns="http://www.w3.org/2000/svg"
 width="860.000000pt" height="571.000000pt" viewBox="0 0 860.000000 571.000000"
 preserveAspectRatio="xMidYMid meet">
<metadata>
Created by potrace 1.16, written by Peter Selinger 2001-2019
</metadata>
<g transform="translate(0.000000,571.000000) scale(0.100000,-0.100000)"
fill="#32CD32" stroke="none">
<path d="M4555 5163 c-104 -80 -392 -302 -640 -491 -247 -190 -453 -350 -457
-356 -26 -38 -10 -53 290 -283 879 -677 993 -763 1015 -763 29 0 47 18 47 46
0 17 -103 288 -237 622 -5 10 191 12 1058 9 1046 -3 1065 -4 1151 -25 213 -52
363 -136 519 -291 102 -103 148 -166 209 -289 137 -276 146 -693 20 -996 -136
-326 -452 -574 -805 -631 -72 -12 -212 -15 -700 -15 l-611 0 4 -99 c9 -205
-57 -380 -197 -524 l-55 -57 763 0 c634 0 782 3 870 15 790 115 1403 750 1490
1547 35 314 -5 663 -104 919 -219 568 -689 964 -1300 1097 l-120 26 -1096 5
-1097 6 119 300 c65 165 119 312 119 327 0 27 -23 48 -52 48 -7 0 -98 -66
-203 -147z"/>
<path d="M1790 4644 c-784 -118 -1393 -754 -1479 -1546 -25 -229 -8 -526 43
-728 164 -648 705 -1162 1351 -1283 44 -9 94 -19 110 -23 17 -4 521 -10 1122
-13 l1091 -6 -115 -290 c-127 -318 -138 -356 -103 -375 38 -21 -59 -91 1108
804 204 157 232 182 232 207 0 29 31 5 -988 786 -186 143 -312 233 -326 233
-28 0 -46 -18 -46 -46 0 -17 103 -288 237 -622 5 -10 -191 -12 -1058 -9 -1051
3 -1065 3 -1152 25 -214 52 -393 156 -542 313 -216 228 -309 508 -291 872 14
264 102 487 269 680 107 124 303 252 467 305 150 49 202 52 854 52 l612 0 -4
99 c-9 205 57 380 197 524 l55 57 -774 -1 c-617 -1 -794 -4 -870 -15z"/>
</g>
</svg>
