<?xml version="1.0" standalone="no"?>
<!DOCTYPE svg PUBLIC "-//W3C//DTD SVG 20010904//EN"
 "http://www.w3.org/TR/2001/REC-SVG-20010904/DTD/svg10.dtd">
<svg version="1.0" xmlns="http://www.w3.org/2000/svg"
 width="70.000000pt" height="45.000000pt" viewBox="10 0 45.000000 73.000000"
 preserveAspectRatio="xMidYMid meet">

<g transform="translate(0.200000,60.000000) scale(0.060000,-0.090000)"
fill="#27D10D" stroke="none">
<path d="M131 505 c-41 -8 -86 -22 -100 -33 l-26 -19 -3 -191 c-3 -221 -9
-207 108 -239 60 -17 123 -18 765 -18 758 0 796 2 875 53 l40 26 0 174 c0 184
0 182 -52 216 -62 41 -148 45 -858 45 -520 -1 -692 -4 -749 -14z m1494 -50
c43 -8 84 -20 91 -26 12 -10 14 -44 12 -173 l-3 -161 -37 -12 c-84 -27 -219
-33 -793 -33 -577 0 -732 6 -811 32 l-39 13 -3 162 c-3 187 -8 177 103 199 96
19 1379 19 1480 -1z"/>
<path d="M290 245 l0 -175 35 0 35 0 0 64 0 64 66 4 c60 4 70 7 95 36 33 37
38 85 15 131 -21 40 -56 51 -156 51 l-90 0 0 -175z m174 99 c39 -39 7 -84 -60
-84 l-44 0 0 50 0 50 44 0 c27 0 51 -6 60 -16z"/>
<path d="M610 245 l0 -175 120 0 120 0 0 30 0 30 -85 0 -85 0 0 145 0 145 -35
0 -35 0 0 -175z"/>
<path d="M975 408 c-3 -7 -29 -86 -59 -176 l-55 -162 39 0 c36 0 39 2 47 37
l9 38 69 0 70 0 9 -38 c9 -35 12 -37 47 -37 l38 0 -54 157 c-29 87 -56 166
-60 176 -9 21 -93 25 -100 5z m91 -180 c5 -15 -1 -18 -41 -18 -35 0 -46 3 -42
13 3 7 13 42 23 78 l18 64 18 -60 c10 -33 21 -68 24 -77z"/>
<path d="M1200 416 c0 -3 27 -48 60 -101 59 -95 60 -97 60 -171 l0 -74 35 0
35 0 0 73 c0 72 1 75 60 170 33 54 60 100 60 102 0 3 -17 5 -39 5 -36 0 -40
-3 -69 -57 -18 -32 -35 -64 -40 -71 -6 -8 -20 9 -47 58 -37 68 -40 70 -77 70
-21 0 -38 -2 -38 -4z"/>
</g>
</svg>
