<?xml version="1.0" standalone="no"?>
<!DOCTYPE svg PUBLIC "-//W3C//DTD SVG 20010904//EN"
 "http://www.w3.org/TR/2001/REC-SVG-20010904/DTD/svg10.dtd">
<svg version="1.0" xmlns="http://www.w3.org/2000/svg"
 width="225.000000pt" height="225.000000pt" viewBox="0 0 225.000000 225.000000"
 preserveAspectRatio="xMidYMid meet">
<metadata>
Created by potrace 1.16, written by Peter Selinger 2001-2019
</metadata>
<g transform="translate(0.000000,225.000000) scale(0.100000,-0.100000)"
fill="#000000" stroke="none">
<path d="M1007 2053 c-3 -5 -12 -46 -22 -93 -23 -114 -51 -161 -117 -194 -84
-42 -121 -34 -244 48 -38 25 -75 46 -82 46 -15 0 -158 -134 -173 -162 -7 -12
4 -35 42 -92 28 -41 54 -91 59 -110 17 -75 -26 -168 -93 -203 -18 -9 -66 -23
-107 -32 l-75 -16 -3 -124 c-2 -78 1 -128 8 -136 6 -7 43 -19 83 -25 97 -15
121 -26 161 -70 63 -70 59 -152 -13 -258 -23 -34 -41 -67 -41 -74 0 -17 171
-188 189 -188 8 0 38 18 68 41 116 87 202 93 280 17 35 -33 45 -58 63 -150 17
-85 22 -88 153 -88 62 0 117 4 124 8 6 4 16 35 22 69 16 98 49 147 123 178 68
28 136 13 217 -49 19 -14 42 -26 51 -26 16 0 180 160 180 175 0 5 -21 39 -47
78 -46 67 -48 72 -48 141 0 64 3 77 28 109 37 49 85 72 177 86 41 7 78 17 82
24 4 7 8 62 8 124 0 126 -6 138 -68 148 -87 15 -138 35 -169 67 -77 79 -72
164 16 281 23 30 41 60 41 68 0 18 -170 189 -188 189 -7 0 -44 -21 -82 -46
-88 -59 -145 -68 -214 -34 -60 28 -91 81 -106 179 -6 41 -16 81 -22 88 -12 14
-253 19 -261 6z m263 -683 c61 -30 97 -65 128 -125 22 -42 27 -63 27 -130 0
-67 -5 -88 -27 -130 -31 -60 -77 -104 -138 -136 -66 -34 -186 -34 -254 1 -170
87 -207 316 -72 458 30 33 86 67 136 83 44 15 152 4 200 -21z"/>
<path d="M1048 1280 c-20 -11 -50 -36 -65 -57 -25 -32 -28 -45 -28 -108 0 -63
3 -76 27 -108 46 -59 85 -81 153 -85 44 -2 69 2 94 15 112 59 135 205 47 301
-55 61 -157 79 -228 42z"/>
</g>
</svg>
